<?xml version="1.0" encoding="UTF-8"?>
<svg width="40px" height="40px" viewBox="0 0 40 40" version="1.1" xmlns="http://www.w3.org/2000/svg"
    xmlns:xlink="http://www.w3.org/1999/xlink">
    <title>Artboard</title>
    <defs>
        <polygon id="path-1" points="0 0 3.4423769 0 3.4423769 3.54777885 0 3.54777885" />
        <polygon id="path-3" points="0 0 3.30660625 0 3.30660625 4.71458467 0 4.71458467" />
    </defs>
    <g id="Artboard" stroke="none" stroke-width="1" fill="none" fill-rule="evenodd">
        <rect id="Rectangle" fill="#FFFFFF" x="0" y="0" width="40" height="40" />
        <g id="icona-36x36" transform="translate(2.000000, 2.000000)">
            <rect id="Rectangle" fill="#FFFFFF" opacity="0" x="0" y="0" width="36" height="36" />
            <g id="Group-64" transform="translate(0.000000, 7.000000)">
                <path
                    d="M1.8856425,17 L0,20.1246944 L0,20.9657702 L2.26949715,20.9657702 L2.27181651,22 L3.27957994,22 L3.27957994,20.9669927 L3.89189189,20.9669927 L3.89189189,20.0305623 L3.27957994,20.0305623 L3.27957994,17 L1.8856425,17 Z M2.26949715,17.9437653 L2.26949715,20.0281174 L0.989208517,20.0281174 L2.26949715,17.9437653 Z"
                    id="Fill-1" fill="#000000" />
                <polygon id="Fill-2" fill="#000000"
                    points="7.55235435 17 6.33341187 19.0075758 5.09871765 17 3.89189189 17 5.80512268 19.9533236 5.80754603 22 6.86048938 22 6.86048938 19.9533236 8.75675676 17"/>
                <g id="Group-63" transform="translate(7.783784, 0.000000)">
                    <g id="Group-5" transform="translate(0.000000, 18.452221)">
                        <mask id="mask-2" fill="white">
                            <use xlink:href="#path-1"/>
                        </mask>
                        <g id="Clip-4"/>
                        <path
                            d="M2.55422912,1.78277897 C2.55422912,1.26243036 2.25123333,0.811084499 1.71879507,0.811084499 C1.18635681,0.811084499 0.889947883,1.26243036 0.889947883,1.78277897 C0.889947883,2.30312759 1.18635681,2.76012941 1.71879507,2.76012941 C2.25123333,2.76012941 2.55422912,2.30991474 2.55422912,1.78277897 M0.000721101716,1.78277897 C-0.00367014165,0.804297343 0.762601825,0.00567534139 1.7122082,5.77315973e-15 C2.66291239,-0.00450539234 3.43686903,0.783935876 3.4423769,1.7635487 C3.44674933,2.74316152 2.68157518,3.54178352 1.73087099,3.5463083 L1.71879507,3.5463083 C0.809807692,3.58703123 0.040242292,2.85967436 0.00181891256,1.92304686 C-0.000376709125,1.87666796 -0.000376709125,1.82915787 0.000721101716,1.78277897"
                            id="Fill-3" fill="#000000" mask="url(#mask-2)"/>
                    </g>
                    <path
                        d="M6.25176581,21.4910764 C5.95755251,21.8202535 5.5414822,22.0046379 5.10784692,21.9967195 C4.39317206,21.9967195 4.05614413,21.5928838 4.05614413,20.942448 L4.05614413,18.5624187 L4.91243659,18.5624187 L4.91243659,20.5963031 C4.91243659,21.0578297 5.14736811,21.2139342 5.51184131,21.2139342 C5.80166337,21.2094095 6.07392046,21.0691416 6.25176581,20.8315911 L6.25176581,18.5624187 L7.11025389,18.5624187 L7.11025389,21.9164049 L6.25176581,21.9164049 L6.25176581,21.4910764 Z"
                        id="Fill-6" fill="#000000"/>
                    <path
                        d="M9.89100875,20.6934725 C9.71645683,20.4932514 9.46396033,20.3869193 9.20487697,20.4038872 C8.86784905,20.4038872 8.59120071,20.5837468 8.59120071,20.9095303 C8.59120071,21.2228707 8.86784905,21.4027303 9.20487697,21.4027303 C9.46396033,21.418567 9.71645683,21.3122349 9.89100875,21.1142762 L9.89100875,20.6934725 Z M9.89100875,21.5667532 C9.62314291,21.8563385 9.24878941,22.0135743 8.86126218,21.9977376 C8.34199765,21.9977376 7.7294192,21.6368872 7.7294192,20.8869064 C7.7294192,20.1029899 8.34199765,19.8190606 8.86126218,19.8190606 C9.24549598,19.791912 9.62204509,19.9423606 9.89100875,20.2285523 L9.89100875,19.7658945 C9.89100875,19.4254056 9.60996918,19.2036918 9.1774317,19.2036918 C8.8228388,19.2036918 8.48251744,19.3462221 8.22782533,19.598478 L7.90397113,19.0091267 C8.29918303,18.6595881 8.80417602,18.4718102 9.32453836,18.4797285 C10.0655607,18.4797285 10.7462034,18.7851505 10.7462034,19.7523202 L10.7462034,21.9151606 L9.89100875,21.9151606 L9.89100875,21.5667532 Z"
                        id="Fill-8" fill="#000000"/>
                    <path
                        d="M13.7708918,19.8870453 C13.7708918,19.4255187 13.5359603,19.2626269 13.1714871,19.2626269 C12.8783716,19.2660205 12.6039189,19.4130756 12.4315626,19.6585444 L12.4315626,21.9141425 L11.576368,21.9141425 L11.576368,18.5590251 L12.4315626,18.5590251 L12.4315626,18.9990591 C12.719189,18.6630948 13.1341615,18.4730545 13.5688946,18.4787104 C14.2835695,18.4787104 14.6260865,18.8949893 14.6260865,19.5476875 L14.6260865,21.9141425 L13.7708918,21.9141425 L13.7708918,19.8870453 Z"
                        id="Fill-10" fill="#000000"/>
                    <g id="Group-14" transform="translate(15.247667, 17.285415)">
                        <mask id="mask-4" fill="white">
                            <use xlink:href="#path-3"/>
                        </mask>
                        <g id="Clip-13"/>
                        <path
                            d="M2.44482474,2.36193023 C2.27027282,2.12211739 1.99582011,1.98071831 1.70380243,1.97958711 C1.21966784,1.97958711 0.882639916,2.37550454 0.882639916,2.95693755 C0.882639916,3.53950176 1.21966784,3.92976322 1.70380243,3.92976322 C1.99582011,3.92863203 2.26917501,3.78836414 2.44482474,3.5485513 L2.44482474,2.36193023 Z M2.44482474,4.20124945 C2.20550198,4.52363936 1.83444192,4.71367972 1.44142563,4.71481091 C0.620263125,4.71481091 0,4.07908065 0,2.95806875 C0,1.8596807 0.61367626,1.19567062 1.44142563,1.19567062 C1.83553973,1.19453942 2.20659979,1.38457979 2.44482474,1.70923207 L2.44482474,0 L3.30660625,0 L3.30660625,4.62657789 L2.44482474,4.62657789 L2.44482474,4.20124945 Z"
                            id="Fill-12" fill="#000000" mask="url(#mask-4)"/>
                    </g>
                    <polygon id="Fill-15" fill="#000000"
                        points="23.282325 18.5824408 22.0154512 21.9138031 21.5982831 21.9138031 20.3314094 18.5824408 20.3314094 21.9138031 19.3774118 21.9138031 19.3774118 17.2872252 20.716741 17.2872252 21.807965 20.1740288 22.899189 17.2872252 24.2473007 17.2872252 24.2473007 21.9138031 23.282325 21.9138031"></polygon>
                    <path
                        d="M25.7867608,19.9246009 L27.3906625,19.9246009 C27.3719997,19.4958789 27.021798,19.1633082 26.6057277,19.1814073 C26.6002387,19.1814073 26.5936518,19.1825385 26.5881627,19.1825385 C26.1720924,19.1689642 25.8174995,19.4958789 25.7867608,19.9246009 M26.5881627,18.4789367 C27.5586275,18.4789367 28.2162162,19.2311798 28.2162162,20.3250431 L28.2162162,20.518477 L25.8010324,20.518477 C25.8636076,20.9924467 26.2741888,21.3329357 26.7363672,21.2967375 C27.0558302,21.2967375 27.364315,21.1779623 27.6058334,20.9630357 L27.9823825,21.5331568 C27.6036378,21.8476284 27.1293835,22.0116513 26.6419555,21.9946834 C25.6528279,21.9946834 24.9019253,21.3080495 24.9019253,20.2311541 C24.8788713,19.2888706 25.6012308,18.5038229 26.516805,18.4800679 C26.5409569,18.4789367 26.5651087,18.4789367 26.5881627,18.4789367"
                        id="Fill-17" fill="#000000"/>
                    <polygon id="Stroke-19" stroke="#000000" stroke-width="0.5"
                        points="10.1718288 0 2.93286408 4.4546366 2.93286408 13.3967144 10.1718288 15.919274 17.3767613 13.3978456 17.3767613 4.45237422"/>
                    <polygon id="Stroke-21" stroke="#000000" stroke-width="0.5"
                        stroke-linejoin="round"
                        points="6.41050926 6.89823894 6.41050926 11.6650847 10.1803917 13.346037 10.1803917 8.7782811"/>
                    <polygon id="Stroke-23" stroke="#000000" stroke-width="0.5"
                        stroke-linejoin="round"
                        points="13.8566309 6.919166 10.1712799 4.85021467 6.40139743 6.91803481 10.1712799 8.79920817"/>
                    <polygon id="Stroke-25" stroke="#000000" stroke-width="0.5"
                        stroke-linejoin="round"
                        points="10.16118 8.77839422 10.16118 13.3472813 13.846531 11.6629354 13.846531 6.89835206"/>
                    <polyline id="Stroke-27" stroke="#000000" stroke-width="0.5"
                        points="2.95998001 8.89818752 6.42906226 6.94914261 6.42906226 2.31917114"/>
                    <line x1="6.42873292" y1="11.6500398" x2="2.95965066" y2="13.3321233"
                        id="Stroke-29" stroke="#000000" stroke-width="0.5"/>
                    <line x1="13.8298443" y1="11.6477775" x2="17.348328" y2="13.3321233"
                        id="Stroke-31" stroke="#000000" stroke-width="0.5"/>
                    <polyline id="Stroke-33" stroke="#000000" stroke-width="0.5"
                        points="17.3484378 8.89818752 13.829954 6.9502738 13.829954 2.27731702"/>
                    <polyline id="Stroke-35" stroke="#000000" stroke-width="0.5"
                        points="7.00607164 14.7491683 10.1710603 13.3227344 13.336049 14.7367252"/>
                    <line x1="10.1708407" y1="0" x2="10.1708407" y2="4.88109623" id="Stroke-37"
                        stroke="#000000" stroke-width="0.5"/>
                    <line x1="8.20510064" y1="6.75242821" x2="10.4040158" y2="7.94018048"
                        id="Stroke-39" stroke="#4612FE" stroke-width="0.5"
                        stroke-linecap="round"/>
                    <line x1="8.76267877" y1="6.39338766" x2="10.9110946" y2="7.58113993"
                        id="Stroke-41" stroke="#4612FE" stroke-width="0.5"
                        stroke-linecap="round"/>
                    <line x1="9.27513687" y1="6.05810217" x2="11.5333338" y2="7.30693884"
                        id="Stroke-43" stroke="#4612FE" stroke-width="0.5"
                        stroke-linecap="round"/>
                    <line x1="9.89693693" y1="5.70845052" x2="12.1551338" y2="6.95728719"
                        id="Stroke-45" stroke="#4612FE" stroke-width="0.5"
                        stroke-linecap="round"/>
                    <line x1="13.0375542" y1="8.24311386" x2="13.0375542" y2="11.4726688"
                        id="Stroke-47" stroke="#1CE453" stroke-width="0.5"
                        stroke-linecap="round"/>
                    <line x1="12.3835883" y1="8.49672725" x2="12.3835883" y2="11.7274134"
                        id="Stroke-49" stroke="#1CE453" stroke-width="0.5"
                        stroke-linecap="round"/>
                    <line x1="11.7285245" y1="8.88879862" x2="11.7285245" y2="12.1194848"
                        id="Stroke-51" stroke="#1CE453" stroke-width="0.5"
                        stroke-linecap="round"/>
                    <line x1="11.0263647" y1="9.11469779" x2="11.0263647" y2="12.345384"
                        id="Stroke-53" stroke="#1CE453" stroke-width="0.5"
                        stroke-linecap="round"/>
                    <line x1="7.32926715" y1="8.21551276" x2="7.32926715" y2="11.4767411"
                        id="Stroke-55" stroke="#16F0D6" stroke-width="0.5"
                        stroke-linecap="round"/>
                    <line x1="7.96500941" y1="8.50385377" x2="7.96500941" y2="11.7650821"
                        id="Stroke-57" stroke="#16F0D6" stroke-width="0.5"
                        stroke-linecap="round"/>
                    <line x1="8.60130057" y1="8.86730596" x2="8.60130057" y2="12.1285343"
                        id="Stroke-59" stroke="#16F0D6" stroke-width="0.5"
                        stroke-linecap="round"/>
                    <line x1="9.2616338" y1="9.26661696" x2="9.2616338" y2="12.5278453"
                        id="Stroke-61" stroke="#16F0D6" stroke-width="0.5"
                        stroke-linecap="round"/>
                </g>
            </g>
        </g>
    </g>
</svg>